<?xml version="1.0" encoding="UTF-8"?>
<svg version="1.1" xmlns="http://www.w3.org/2000/svg" width="470" height="75">
<path d="M0 0 C2.64 0 5.28 0 8 0 C8 0.66 8 1.32 8 2 C8.66 2 9.32 2 10 2 C10 4.64 10 7.28 10 10 C8.68 10 7.36 10 6 10 C6 10.99 6 11.98 6 13 C7.32 13 8.64 13 10 13 C10 16.3 10 19.6 10 23 C10.99 23 11.98 23 13 23 C13 20.69 13 18.38 13 16 C15.475 15.505 15.475 15.505 18 15 C18 14.34 18 13.68 18 13 C18.99 13 19.98 13 21 13 C21 12.01 21 11.02 21 10 C22.98 10 24.96 10 27 10 C27 10.99 27 11.98 27 13 C28.32 13 29.64 13 31 13 C31 12.01 31 11.02 31 10 C32.98 10 34.96 10 37 10 C37 10.99 37 11.98 37 13 C37.66 13 38.32 13 39 13 C39 21.91 39 30.82 39 40 C31.41 40 23.82 40 16 40 C16 39.01 16 38.02 16 37 C14.515 36.505 14.515 36.505 13 36 C13 34.35 13 32.7 13 31 C12.01 31 11.02 31 10 31 C10 33.97 10 36.94 10 40 C5.71 40 1.42 40 -3 40 C-3 39.01 -3 38.02 -3 37 C-3.66 37 -4.32 37 -5 37 C-5 37.99 -5 38.98 -5 40 C-10.28 40 -15.56 40 -21 40 C-21 39.01 -21 38.02 -21 37 C-27.525434 35.99607024 -27.525434 35.99607024 -34 37 C-34 37.99 -34 38.98 -34 40 C-36.64 40 -39.28 40 -42 40 C-42 40.66 -42 41.32 -42 42 C-43.65 42 -45.3 42 -47 42 C-47 41.34 -47 40.68 -47 40 C-48.98 40 -50.96 40 -53 40 C-53 39.01 -53 38.02 -53 37 C-54.32 36.67 -55.64 36.34 -57 36 C-57 34.35 -57 32.7 -57 31 C-57.99 31 -58.98 31 -60 31 C-60 32.65 -60 34.3 -60 36 C-61.485 36.495 -61.485 36.495 -63 37 C-63 37.99 -63 38.98 -63 40 C-65.31 40 -67.62 40 -70 40 C-70 40.66 -70 41.32 -70 42 C-71.98 42 -73.96 42 -76 42 C-76 41.34 -76 40.68 -76 40 C-78.64 40 -81.28 40 -84 40 C-84 39.01 -84 38.02 -84 37 C-85.65 36.67 -87.3 36.34 -89 36 C-89 33.69 -89 31.38 -89 29 C-88.34 29 -87.68 29 -87 29 C-87 28.34 -87 27.68 -87 27 C-85.35 26.67 -83.7 26.34 -82 26 C-82 25.01 -82 24.02 -82 23 C-82.66 23 -83.32 23 -84 23 C-84 22.34 -84 21.68 -84 21 C-84.99 21 -85.98 21 -87 21 C-87 16.05 -87 11.1 -87 6 C-85.35 5.67 -83.7 5.34 -82 5 C-82 4.01 -82 3.02 -82 2 C-75.73 2 -69.46 2 -63 2 C-63 2.99 -63 3.98 -63 5 C-62.34 5 -61.68 5 -61 5 C-61 7.64 -61 10.28 -61 13 C-61.66 13 -62.32 13 -63 13 C-63 13.66 -63 14.32 -63 15 C-65.64 15 -68.28 15 -71 15 C-71 14.34 -71 13.68 -71 13 C-72.65 13 -74.3 13 -76 13 C-76 13.66 -76 14.32 -76 15 C-71.71 15.33 -67.42 15.66 -63 16 C-63 16.99 -63 17.98 -63 19 C-62.34 19 -61.68 19 -61 19 C-61 19.66 -61 20.32 -61 21 C-59.68 21 -58.36 21 -57 21 C-57 19.35 -57 17.7 -57 16 C-55.68 15.67 -54.36 15.34 -53 15 C-53 14.34 -53 13.68 -53 13 C-51.68 13 -50.36 13 -49 13 C-49 12.01 -49 11.02 -49 10 C-45.7 10 -42.4 10 -39 10 C-39 10.99 -39 11.98 -39 13 C-37.35 13 -35.7 13 -34 13 C-34 13.66 -34 14.32 -34 15 C-29.37078475 16.0161692 -25.65537393 15.83796731 -21 15 C-21 14.34 -21 13.68 -21 13 C-20.01 13 -19.02 13 -18 13 C-18 12.01 -18 11.02 -18 10 C-14.7 10 -11.4 10 -8 10 C-8 10.99 -8 11.98 -8 13 C-7.01 13 -6.02 13 -5 13 C-5 13.66 -5 14.32 -5 15 C-4.34 15 -3.68 15 -3 15 C-3 14.34 -3 13.68 -3 13 C-1.35 13 0.3 13 2 13 C2 12.01 2 11.02 2 10 C0.35 10 -1.3 10 -3 10 C-3 7.36 -3 4.72 -3 2 C-2.01 2 -1.02 2 0 2 C0 1.34 0 0.68 0 0 Z M-47 23 C-47 24.98 -47 26.96 -47 29 C-45.35 29 -43.7 29 -42 29 C-42 28.34 -42 27.68 -42 27 C-41.34 26.67 -40.68 26.34 -40 26 C-40.66 26 -41.32 26 -42 26 C-42 25.01 -42 24.02 -42 23 C-43.65 23 -45.3 23 -47 23 Z M-15 23 C-15 23.99 -15 24.98 -15 26 C-15.99 26.33 -16.98 26.66 -18 27 C-17.01 27 -16.02 27 -15 27 C-15 27.66 -15 28.32 -15 29 C-13.68 29 -12.36 29 -11 29 C-11 28.34 -11 27.68 -11 27 C-9.68 27 -8.36 27 -7 27 C-7 27.66 -7 28.32 -7 29 C-6.34 29 -5.68 29 -5 29 C-5 29.66 -5 30.32 -5 31 C-4.34 31 -3.68 31 -3 31 C-3 28.36 -3 25.72 -3 23 C-3.66 23 -4.32 23 -5 23 C-5 23.99 -5 24.98 -5 26 C-7.64 26 -10.28 26 -13 26 C-13 25.01 -13 24.02 -13 23 C-13.66 23 -14.32 23 -15 23 Z M24 23 C23.67 24.98 23.34 26.96 23 29 C24.32 29 25.64 29 27 29 C27 27.02 27 25.04 27 23 C26.01 23 25.02 23 24 23 Z M-81 26 C-80.01 26.33 -79.02 26.66 -78 27 C-78 27.66 -78 28.32 -78 29 C-77.34 29 -76.68 29 -76 29 C-76 29.66 -76 30.32 -76 31 C-74.35 31 -72.7 31 -71 31 C-71 29.68 -71 28.36 -71 27 C-74.47325181 25.8422494 -77.36067448 25.93133348 -81 26 Z " fill="#AA3439" transform="translate(341,16)"/>
<path d="M0 0 C6.27 0 12.54 0 19 0 C19 0.99 19 1.98 19 3 C19.66 3 20.32 3 21 3 C21 5.64 21 8.28 21 11 C20.34 11 19.68 11 19 11 C19 11.66 19 12.32 19 13 C16.36 13 13.72 13 11 13 C11 12.34 11 11.68 11 11 C9.35 11 7.7 11 6 11 C6 11.66 6 12.32 6 13 C10.29 13.33 14.58 13.66 19 14 C19 14.99 19 15.98 19 17 C19.66 17 20.32 17 21 17 C21 17.66 21 18.32 21 19 C22.32 19 23.64 19 25 19 C25 17.35 25 15.7 25 14 C26.32 13.67 27.64 13.34 29 13 C29 12.34 29 11.68 29 11 C30.32 11 31.64 11 33 11 C33 10.01 33 9.02 33 8 C36.3 8 39.6 8 43 8 C43 8.99 43 9.98 43 11 C44.65 11 46.3 11 48 11 C48 12.98 48 14.96 48 17 C48.66 17 49.32 17 50 17 C50 21.95 50 26.9 50 32 C49.34 32 48.68 32 48 32 C48 33.98 48 35.96 48 38 C45.36 38 42.72 38 40 38 C40 38.66 40 39.32 40 40 C38.35 40 36.7 40 35 40 C35 39.34 35 38.68 35 38 C33.02 38 31.04 38 29 38 C29 37.01 29 36.02 29 35 C27.68 34.67 26.36 34.34 25 34 C25 32.35 25 30.7 25 29 C24.01 29 23.02 29 22 29 C22 30.65 22 32.3 22 34 C20.515 34.495 20.515 34.495 19 35 C19 35.99 19 36.98 19 38 C16.69 38 14.38 38 12 38 C12 38.66 12 39.32 12 40 C10.02 40 8.04 40 6 40 C6 39.34 6 38.68 6 38 C3.36 38 0.72 38 -2 38 C-2 37.01 -2 36.02 -2 35 C-3.65 34.67 -5.3 34.34 -7 34 C-7 31.69 -7 29.38 -7 27 C-6.34 27 -5.68 27 -5 27 C-5 26.34 -5 25.68 -5 25 C-3.35 24.67 -1.7 24.34 0 24 C0 23.01 0 22.02 0 21 C-0.66 21 -1.32 21 -2 21 C-2 20.34 -2 19.68 -2 19 C-2.99 19 -3.98 19 -5 19 C-5 14.05 -5 9.1 -5 4 C-3.35 3.67 -1.7 3.34 0 3 C0 2.01 0 1.02 0 0 Z M35 21 C35 22.98 35 24.96 35 27 C36.65 27 38.3 27 40 27 C40 26.34 40 25.68 40 25 C40.66 24.67 41.32 24.34 42 24 C41.34 24 40.68 24 40 24 C40 23.01 40 22.02 40 21 C38.35 21 36.7 21 35 21 Z M1 24 C1.99 24.33 2.98 24.66 4 25 C4 25.66 4 26.32 4 27 C4.66 27 5.32 27 6 27 C6 27.66 6 28.32 6 29 C7.65 29 9.3 29 11 29 C11 27.68 11 26.36 11 25 C7.52674819 23.8422494 4.63932552 23.93133348 1 24 Z " fill="#A82D31" transform="translate(259,18)"/>
<path d="M0 0 C10.23 0 20.46 0 31 0 C31 0.99 31 1.98 31 3 C31.99 3 32.98 3 34 3 C34 4.98 34 6.96 34 9 C32.35 9 30.7 9 29 9 C29 9.66 29 10.32 29 11 C27.35 11 25.7 11 24 11 C24 10.34 24 9.68 24 9 C19.38 9 14.76 9 10 9 C10 9.66 10 10.32 10 11 C6.7 11 3.4 11 0 11 C0 11.66 0 12.32 0 13 C-0.99 13 -1.98 13 -3 13 C-3 13.99 -3 14.98 -3 16 C-4.32 16.33 -5.64 16.66 -7 17 C-7.33 19.31 -7.66 21.62 -8 24 C-8.99 24 -9.98 24 -11 24 C-11 28.62 -11 33.24 -11 38 C-10.01 38 -9.02 38 -8 38 C-7.67 39.32 -7.34 40.64 -7 42 C-6.34 42 -5.68 42 -5 42 C-5 43.65 -5 45.3 -5 47 C-2.36 47.33 0.28 47.66 3 48 C3 48.99 3 49.98 3 51 C12.24 51 21.48 51 31 51 C31 51.66 31 52.32 31 53 C31.99 53 32.98 53 34 53 C34 54.98 34 56.96 34 59 C33.01 59 32.02 59 31 59 C31 59.66 31 60.32 31 61 C21.43 61 11.86 61 2 61 C2 60.34 2 59.68 2 59 C-0.31 59 -2.62 59 -5 59 C-5 59.66 -5 60.32 -5 61 C-6.98 61 -8.96 61 -11 61 C-11 61.66 -11 62.32 -11 63 C-13.31 63 -15.62 63 -18 63 C-18 60.36 -18 57.72 -18 55 C-17.01 55 -16.02 55 -15 55 C-15 52.36 -15 49.72 -15 47 C-15.99 47 -16.98 47 -18 47 C-19.39056793 44.21886414 -19.12972925 41.92867044 -19.1328125 38.8203125 C-19.13410156 37.58152344 -19.13539062 36.34273437 -19.13671875 35.06640625 C-19.13285156 33.76574219 -19.12898438 32.46507812 -19.125 31.125 C-19.12886719 29.83207031 -19.13273437 28.53914063 -19.13671875 27.20703125 C-19.13542969 25.96566406 -19.13414063 24.72429688 -19.1328125 23.4453125 C-19.13168457 22.30594238 -19.13055664 21.16657227 -19.12939453 19.99267578 C-19.02032432 17.47006706 -18.738612 15.39920542 -18 13 C-17.01 13 -16.02 13 -15 13 C-15 12.34 -15 11.68 -15 11 C-14.34 11 -13.68 11 -13 11 C-13 10.34 -13 9.68 -13 9 C-12.34 9 -11.68 9 -11 9 C-11 8.01 -11 7.02 -11 6 C-9.02 5.67 -7.04 5.34 -5 5 C-5 4.34 -5 3.68 -5 3 C-3.35 3 -1.7 3 0 3 C0 2.01 0 1.02 0 0 Z " fill="#AF4247" transform="translate(110,5)"/>
<path d="M0 0 C2.31 0 4.62 0 7 0 C7 0.66 7 1.32 7 2 C9.97 2.495 9.97 2.495 13 3 C13 3.99 13 4.98 13 6 C13.66 6 14.32 6 15 6 C15 7.32 15 8.64 15 10 C15.66 10 16.32 10 17 10 C17 10.99 17 11.98 17 13 C17.99 13 18.98 13 20 13 C21.04654682 17.27755248 21.15366933 21.43428391 21.125 25.8125 C21.12306641 26.52083984 21.12113281 27.22917969 21.11914062 27.95898438 C21.0796733 32.72576078 20.78290476 37.30257144 20 42 C19.01 42 18.02 42 17 42 C17 42.66 17 43.32 17 44 C16.34 44 15.68 44 15 44 C15 45.32 15 46.64 15 48 C14.34 48 13.68 48 13 48 C13 48.66 13 49.32 13 50 C12.01 50 11.02 50 10 50 C9.67 51.65 9.34 53.3 9 55 C6.03 55 3.06 55 0 55 C0 51.37 0 47.74 0 44 C-1.98 44 -3.96 44 -6 44 C-6 41.03 -6 38.06 -6 35 C-7.65 34.67 -9.3 34.34 -11 34 C-12.16461426 30.50615721 -12.13568319 27.66344611 -12 24 C-11 23 -11 23 -8.71484375 22.90234375 C-7.34005859 22.91974609 -7.34005859 22.91974609 -5.9375 22.9375 C-5.01839844 22.94652344 -4.09929687 22.95554687 -3.15234375 22.96484375 C-2.44207031 22.97644531 -1.73179687 22.98804687 -1 23 C-1 22.34 -1 21.68 -1 21 C-1.99 21 -2.98 21 -4 21 C-4 20.01 -4 19.02 -4 18 C-4.66 18 -5.32 18 -6 18 C-6 16.35 -6 14.7 -6 13 C-5.34 13 -4.68 13 -4 13 C-4 12.01 -4 11.02 -4 10 C-2.68 10 -1.36 10 0 10 C0 6.7 0 3.4 0 0 Z M0 10 C0 10.99 0 11.98 0 13 C0.66 13 1.32 13 2 13 C2 12.01 2 11.02 2 10 C1.34 10 0.68 10 0 10 Z M4 14 C4 14.66 4 15.32 4 16 C4.99 16 5.98 16 7 16 C7 15.34 7 14.68 7 14 C6.01 14 5.02 14 4 14 Z M7 16 C7 16.66 7 17.32 7 18 C7.66 18 8.32 18 9 18 C9 17.34 9 16.68 9 16 C8.34 16 7.68 16 7 16 Z M9 21 C9 25.29 9 29.58 9 34 C9.33 34 9.66 34 10 34 C10 29.71 10 25.42 10 21 C9.67 21 9.34 21 9 21 Z M-1 27 C0 31 0 31 0 31 Z M-4 31 C-4 31.99 -4 32.98 -4 34 C-3.01 34 -2.02 34 -1 34 C-1 33.01 -1 32.02 -1 31 C-1.99 31 -2.98 31 -4 31 Z M7 35 C7 36.32 7 37.64 7 39 C7.66 39 8.32 39 9 39 C9 37.68 9 36.36 9 35 C8.34 35 7.68 35 7 35 Z M2 42 C2 42.66 2 43.32 2 44 C2.66 44 3.32 44 4 44 C4 43.34 4 42.68 4 42 C3.34 42 2.68 42 2 42 Z " fill="#F28A49" transform="translate(145,8)"/>
<path d="M0 0 C5.94 0 11.88 0 18 0 C18 0.99 18 1.98 18 3 C19.32 3.33 20.64 3.66 22 4 C22.125 10.75 22.125 10.75 21 13 C17.7 13 14.4 13 11 13 C11 12.34 11 11.68 11 11 C9.02 11 7.04 11 5 11 C5 11.66 5 12.32 5 13 C3.68 13 2.36 13 1 13 C1 16.96 1 20.92 1 25 C1.66 25 2.32 25 3 25 C3 25.66 3 26.32 3 27 C4.65 27 6.3 27 8 27 C8 27.66 8 28.32 8 29 C8.66 29 9.32 29 10 29 C10.33 27.35 10.66 25.7 11 24 C8.36 24 5.72 24 3 24 C3 21.69 3 19.38 3 17 C3.66 17 4.32 17 5 17 C5 16.01 5 15.02 5 14 C10.61 14 16.22 14 22 14 C22.026926 17.43755209 22.04680317 20.87489408 22.0625 24.3125 C22.07087891 25.28896484 22.07925781 26.26542969 22.08789062 27.27148438 C22.09111328 28.20927734 22.09433594 29.14707031 22.09765625 30.11328125 C22.10289307 30.97735596 22.10812988 31.84143066 22.11352539 32.73168945 C22 35 22 35 21 38 C17.7 38 14.4 38 11 38 C11 38.66 11 39.32 11 40 C9.02 40 7.04 40 5 40 C5 39.34 5 38.68 5 38 C2.36 38 -0.28 38 -3 38 C-3 37.01 -3 36.02 -3 35 C-4.32 34.67 -5.64 34.34 -7 34 C-7 33.34 -7 32.68 -7 32 C-7.99 32 -8.98 32 -10 32 C-10.96958001 29.09125996 -11.12880274 27.21010209 -11.1328125 24.18359375 C-11.13410156 23.25482422 -11.13539063 22.32605469 -11.13671875 21.36914062 C-11.13091797 19.91797852 -11.13091797 19.91797852 -11.125 18.4375 C-11.12886719 17.46619141 -11.13273438 16.49488281 -11.13671875 15.49414062 C-11.13542969 14.56666016 -11.13414062 13.63917969 -11.1328125 12.68359375 C-11.13168457 11.83337646 -11.13055664 10.98315918 -11.12939453 10.10717773 C-11 8 -11 8 -10 6 C-9.01 6 -8.02 6 -7 6 C-7 5.34 -7 4.68 -7 4 C-3.535 3.505 -3.535 3.505 0 3 C0 2.01 0 1.02 0 0 Z " fill="#A72B2F" transform="translate(186,18)"/>
<path d="M0 0 C5.94 0 11.88 0 18 0 C18 0.99 18 1.98 18 3 C19.65 3 21.3 3 23 3 C23 4.65 23 6.3 23 8 C22.34 8 21.68 8 21 8 C21 9.65 21 11.3 21 13 C18.36 13 15.72 13 13 13 C13 12.34 13 11.68 13 11 C12.01 11 11.02 11 10 11 C10 10.01 10 9.02 10 8 C9.34 8 8.68 8 8 8 C8 9.65 8 11.3 8 13 C12.29 13.33 16.58 13.66 21 14 C21 14.99 21 15.98 21 17 C21.66 17 22.32 17 23 17 C24.53266582 20.06533164 24.10276471 23.26754272 24.0625 26.625 C24.05798828 27.33140625 24.05347656 28.0378125 24.04882812 28.765625 C24.03703875 30.51045275 24.01910324 32.255237 24 34 C22.515 34.495 22.515 34.495 21 35 C21 35.99 21 36.98 21 38 C18.69 38 16.38 38 14 38 C14 38.66 14 39.32 14 40 C11.36 40 8.72 40 6 40 C6 39.34 6 38.68 6 38 C4.02 38 2.04 38 0 38 C0 37.01 0 36.02 0 35 C-1.65 34.67 -3.3 34.34 -5 34 C-5 31.03 -5 28.06 -5 25 C-1.535 24.505 -1.535 24.505 2 24 C2 23.01 2 22.02 2 21 C1.34 21 0.68 21 0 21 C0 20.34 0 19.68 0 19 C-0.99 19 -1.98 19 -3 19 C-3 18.34 -3 17.68 -3 17 C-3.66 17 -4.32 17 -5 17 C-5 13.37 -5 9.74 -5 6 C-4.34 6 -3.68 6 -3 6 C-3 5.34 -3 4.68 -3 4 C-2.01 4 -1.02 4 0 4 C0 2.68 0 1.36 0 0 Z M3 24 C3.99 24.33 4.98 24.66 6 25 C6 25.66 6 26.32 6 27 C6.66 27 7.32 27 8 27 C8 27.66 8 28.32 8 29 C9.65 29 11.3 29 13 29 C13 27.68 13 26.36 13 25 C9.52674819 23.8422494 6.63932552 23.93133348 3 24 Z " fill="#B04348" transform="translate(215,18)"/>
<path d="M0 0 C1.98 0 3.96 0 6 0 C6 0.99 6 1.98 6 3 C7.32 3 8.64 3 10 3 C10 2.01 10 1.02 10 0 C11.98 0 13.96 0 16 0 C16 0.99 16 1.98 16 3 C16.66 3 17.32 3 18 3 C18 11.91 18 20.82 18 30 C10.41 30 2.82 30 -5 30 C-5 29.01 -5 28.02 -5 27 C-5.99 26.67 -6.98 26.34 -8 26 C-8 19.4 -8 12.8 -8 6 C-6.35 5.67 -4.7 5.34 -3 5 C-3 4.34 -3 3.68 -3 3 C-2.01 3 -1.02 3 0 3 C0 2.01 0 1.02 0 0 Z M3 13 C2.67 14.98 2.34 16.96 2 19 C3.32 19 4.64 19 6 19 C6 17.02 6 15.04 6 13 C5.01 13 4.02 13 3 13 Z " fill="#A82E33" transform="translate(362,26)"/>
<path d="M0 0 C3.3 0 6.6 0 10 0 C10 0.99 10 1.98 10 3 C11.65 3 13.3 3 15 3 C15 4.98 15 6.96 15 9 C15.66 9 16.32 9 17 9 C17 13.95 17 18.9 17 24 C16.34 24 15.68 24 15 24 C15 25.98 15 27.96 15 30 C12.36 30 9.72 30 7 30 C7 30.66 7 31.32 7 32 C5.35 32 3.7 32 2 32 C2 31.34 2 30.68 2 30 C0.02 30 -1.96 30 -4 30 C-4 29.01 -4 28.02 -4 27 C-5.32 26.67 -6.64 26.34 -8 26 C-8 19.4 -8 12.8 -8 6 C-6.68 5.67 -5.36 5.34 -4 5 C-4 4.34 -4 3.68 -4 3 C-2.68 3 -1.36 3 0 3 C0 2.01 0 1.02 0 0 Z M2 13 C2 14.98 2 16.96 2 19 C3.65 19 5.3 19 7 19 C7 18.34 7 17.68 7 17 C7.66 16.67 8.32 16.34 9 16 C8.34 16 7.68 16 7 16 C7 15.01 7 14.02 7 13 C5.35 13 3.7 13 2 13 Z " fill="#A93035" transform="translate(292,26)"/>
<path d="M0 0 C2.64 0 5.28 0 8 0 C8 0.66 8 1.32 8 2 C8.66 2 9.32 2 10 2 C10 4.64 10 7.28 10 10 C8.68 10 7.36 10 6 10 C6 10.99 6 11.98 6 13 C7.32 13 8.64 13 10 13 C10 16.3 10 19.6 10 23 C10.99 23 11.98 23 13 23 C13 25.64 13 28.28 13 31 C12.01 31 11.02 31 10 31 C10 33.97 10 36.94 10 40 C5.71 40 1.42 40 -3 40 C-3 39.01 -3 38.02 -3 37 C-3.66 37 -4.32 37 -5 37 C-5 35.02 -5 33.04 -5 31 C-4.34 31 -3.68 31 -3 31 C-3 28.36 -3 25.72 -3 23 C-3.66 23 -4.32 23 -5 23 C-5 20.36 -5 17.72 -5 15 C-4.34 15 -3.68 15 -3 15 C-3 14.34 -3 13.68 -3 13 C-1.35 13 0.3 13 2 13 C2 12.01 2 11.02 2 10 C0.35 10 -1.3 10 -3 10 C-3 7.36 -3 4.72 -3 2 C-2.01 2 -1.02 2 0 2 C0 1.34 0 0.68 0 0 Z " fill="#E3D3DB" transform="translate(341,16)"/>
<path d="M0 0 C3.3 0 6.6 0 10 0 C10 9.57 10 19.14 10 29 C10.99 29 11.98 29 13 29 C14.20272819 31.40545638 14.10071472 32.94996953 14.0625 35.625 C14.05347656 36.44226562 14.04445313 37.25953125 14.03515625 38.1015625 C14.02355469 38.72804687 14.01195312 39.35453125 14 40 C12.68 40 11.36 40 10 40 C10 40.66 10 41.32 10 42 C9.34 42 8.68 42 8 42 C8 41.34 8 40.68 8 40 C6.02 40 4.04 40 2 40 C2 39.01 2 38.02 2 37 C1.34 37 0.68 37 0 37 C0 24.79 0 12.58 0 0 Z " fill="#AF4146" transform="translate(383,16)"/>
<path d="M0 0 C1.32 0 2.64 0 4 0 C4 0.99 4 1.98 4 3 C5.32 3.33 6.64 3.66 8 4 C8 4.66 8 5.32 8 6 C8.99 6 9.98 6 11 6 C11 12.27 11 18.54 11 25 C10.01 25 9.02 25 8 25 C8 26.32 8 27.64 8 29 C7.34 29 6.68 29 6 29 C6 29.99 6 30.98 6 32 C4.02 32 2.04 32 0 32 C0 30.35 0 28.7 0 27 C0.99 27 1.98 27 3 27 C3 25.02 3 23.04 3 21 C2.01 21 1.02 21 0 21 C0 21.99 0 22.98 0 24 C-2.31 24 -4.62 24 -7 24 C-8.16461426 20.50615721 -8.13568319 17.66344611 -8 14 C-7 13 -7 13 -4.71484375 12.90234375 C-3.34005859 12.91974609 -3.34005859 12.91974609 -1.9375 12.9375 C-1.01839844 12.94652344 -0.09929687 12.95554687 0.84765625 12.96484375 C1.55792969 12.97644531 2.26820313 12.98804688 3 13 C3 12.34 3 11.68 3 11 C2.01 11 1.02 11 0 11 C0 10.01 0 9.02 0 8 C-0.66 8 -1.32 8 -2 8 C-2 6.35 -2 4.7 -2 3 C-1.34 3 -0.68 3 0 3 C0 2.01 0 1.02 0 0 Z M3 17 C4 21 4 21 4 21 Z " fill="#AD3B40" transform="translate(141,18)"/>
<path d="M0 0 C2.64 0 5.28 0 8 0 C8 8.25 8 16.5 8 25 C5.36 25 2.72 25 0 25 C0 16.75 0 8.5 0 0 Z " fill="#A31E22" transform="translate(341,31)"/>
<path d="M0 0 C1.98 0 3.96 0 6 0 C6 0.99 6 1.98 6 3 C7.32 3 8.64 3 10 3 C10 2.01 10 1.02 10 0 C11.98 0 13.96 0 16 0 C16 0.99 16 1.98 16 3 C16.66 3 17.32 3 18 3 C18 11.91 18 20.82 18 30 C10.41 30 2.82 30 -5 30 C-5 29.01 -5 28.02 -5 27 C1.93 27 8.86 27 16 27 C16 19.74 16 12.48 16 5 C9.73 5 3.46 5 -3 5 C-3 4.34 -3 3.68 -3 3 C-2.01 3 -1.02 3 0 3 C0 2.01 0 1.02 0 0 Z " fill="#BF6D74" transform="translate(362,26)"/>
<path d="M0 0 C5.61 0 11.22 0 17 0 C17.026926 3.43755209 17.04680317 6.87489408 17.0625 10.3125 C17.07087891 11.28896484 17.07925781 12.26542969 17.08789062 13.27148438 C17.09272461 14.67817383 17.09272461 14.67817383 17.09765625 16.11328125 C17.10551147 17.40939331 17.10551147 17.40939331 17.11352539 18.73168945 C17 21 17 21 16 24 C14.35 24 12.7 24 11 24 C11 23.01 11 22.02 11 21 C12.65 20.67 14.3 20.34 16 20 C16 14.39 16 8.78 16 3 C11.71 3 7.42 3 3 3 C3 4.32 3 5.64 3 7 C4.98 7 6.96 7 9 7 C9 9.64 9 12.28 9 15 C7.68 15 6.36 15 5 15 C5.33 13.35 5.66 11.7 6 10 C3.36 10 0.72 10 -2 10 C-2 7.69 -2 5.38 -2 3 C-1.34 3 -0.68 3 0 3 C0 2.01 0 1.02 0 0 Z " fill="#C78389" transform="translate(191,32)"/>
<path d="M0 0 C3.3 0.33 6.6 0.66 10 1 C10 1.99 10 2.98 10 4 C9.34 4 8.68 4 8 4 C8 8.95 8 13.9 8 19 C8.66 19 9.32 19 10 19 C10 19.66 10 20.32 10 21 C10.99 21.33 11.98 21.66 13 22 C11.783125 21.814375 10.56625 21.62875 9.3125 21.4375 C5.97022061 21.01006818 3.28031583 21.07741117 0 22 C0 21.01 0 20.02 0 19 C0.66 19 1.32 19 2 19 C2 14.05 2 9.1 2 4 C1.34 4 0.68 4 0 4 C0 2.68 0 1.36 0 0 Z " fill="#B44F54" transform="translate(307,31)"/>
<path d="M0 0 C2.64 0 5.28 0 8 0 C8 0.66 8 1.32 8 2 C8.66 2 9.32 2 10 2 C10 4.64 10 7.28 10 10 C8.68 10 7.36 10 6 10 C6 10.99 6 11.98 6 13 C4.68 13 3.36 13 2 13 C2 12.01 2 11.02 2 10 C0.35 10 -1.3 10 -3 10 C-3 7.36 -3 4.72 -3 2 C-2.01 2 -1.02 2 0 2 C0 1.34 0 0.68 0 0 Z " fill="#DDC1CA" transform="translate(341,16)"/>
<path d="M0 0 C0.99 0 1.98 0 3 0 C3 1.98 3 3.96 3 6 C1.35 6 -0.3 6 -2 6 C-2 6.66 -2 7.32 -2 8 C-3.65 8 -5.3 8 -7 8 C-7 7.34 -7 6.68 -7 6 C-11.62 6 -16.24 6 -21 6 C-21 6.66 -21 7.32 -21 8 C-23.64 8 -26.28 8 -29 8 C-29 7.34 -29 6.68 -29 6 C-27.68 6 -26.36 6 -25 6 C-25 5.01 -25 4.02 -25 3 C-16.75 3 -8.5 3 0 3 C0 2.01 0 1.02 0 0 Z " fill="#BD666C" transform="translate(141,8)"/>
<path d="M0 0 C1.37478516 0.01740234 1.37478516 0.01740234 2.77734375 0.03515625 C3.69644531 0.04417969 4.61554688 0.05320312 5.5625 0.0625 C6.27277344 0.07410156 6.98304688 0.08570312 7.71484375 0.09765625 C8.59325371 3.1948647 8.70919781 5.00411028 7.71484375 8.09765625 C6.72484375 8.09765625 5.73484375 8.09765625 4.71484375 8.09765625 C4.71484375 9.08765625 4.71484375 10.07765625 4.71484375 11.09765625 C2.40484375 11.09765625 0.09484375 11.09765625 -2.28515625 11.09765625 C-3.44977051 7.60381346 -3.42083944 4.76110236 -3.28515625 1.09765625 C-2.28515625 0.09765625 -2.28515625 0.09765625 0 0 Z " fill="#FC866C" transform="translate(136.28515625,30.90234375)"/>
<path d="M0 0 C10.23 0 20.46 0 31 0 C31 0.99 31 1.98 31 3 C20.77 3 10.54 3 0 3 C0 2.01 0 1.02 0 0 Z " fill="#B7565C" transform="translate(110,5)"/>
<path d="M0 0 C2.64 0 5.28 0 8 0 C8 3.3 8 6.6 8 10 C8.99 10 9.98 10 11 10 C11 12.64 11 15.28 11 18 C10.01 18 9.02 18 8 18 C8 20.97 8 23.94 8 27 C7.34 27 6.68 27 6 27 C6 18.75 6 10.5 6 2 C4.02 2 2.04 2 0 2 C0 1.34 0 0.68 0 0 Z " fill="#D4A8B0" transform="translate(343,29)"/>
<path d="M0 0 C3.3 0 6.6 0 10 0 C10 0.99 10 1.98 10 3 C11.65 3 13.3 3 15 3 C15 3.66 15 4.32 15 5 C5.595 5.495 5.595 5.495 -4 6 C-4 6.99 -4 7.98 -4 9 C-4.66 9 -5.32 9 -6 9 C-6 9.66 -6 10.32 -6 11 C-6.66 11 -7.32 11 -8 11 C-8 9.35 -8 7.7 -8 6 C-6.68 5.67 -5.36 5.34 -4 5 C-4 4.34 -4 3.68 -4 3 C-2.68 3 -1.36 3 0 3 C0 2.01 0 1.02 0 0 Z " fill="#CC9198" transform="translate(292,26)"/>
<path d="M0 0 C0.33 0 0.66 0 1 0 C1 1.65 1 3.3 1 5 C1.99 5 2.98 5 4 5 C4 9.62 4 14.24 4 19 C3.01 19 2.02 19 1 19 C0.67 19.66 0.34 20.32 0 21 C0 20.34 0 19.68 0 19 C-0.66 19 -1.32 19 -2 19 C-2 13.39 -2 7.78 -2 2 C-1.34 2 -0.68 2 0 2 C0 1.34 0 0.68 0 0 Z M0 5 C0 9.29 0 13.58 0 18 C0.33 18 0.66 18 1 18 C1 13.71 1 9.42 1 5 C0.67 5 0.34 5 0 5 Z " fill="#EEC8B6" transform="translate(154,24)"/>
<path d="M0 0 C2.31 0 4.62 0 7 0 C7 0.99 7 1.98 7 3 C7.66 3 8.32 3 9 3 C9 5.64 9 8.28 9 11 C8.34 11 7.68 11 7 11 C7 11.66 7 12.32 7 13 C4.36 13 1.72 13 -1 13 C-1 12.34 -1 11.68 -1 11 C-2.65 11 -4.3 11 -6 11 C-6 10.01 -6 9.02 -6 8 C-4.02 8 -2.04 8 0 8 C0 8.99 0 9.98 0 11 C1.32 11 2.64 11 4 11 C4 10.01 4 9.02 4 8 C4.99 8 5.98 8 7 8 C7 6.68 7 5.36 7 4 C4.69 3.67 2.38 3.34 0 3 C0 2.01 0 1.02 0 0 Z " fill="#DCBFC6" transform="translate(271,18)"/>
<path d="M0 0 C1.98 0 3.96 0 6 0 C6 0.99 6 1.98 6 3 C7.32 3 8.64 3 10 3 C10 2.01 10 1.02 10 0 C11.98 0 13.96 0 16 0 C16 0.99 16 1.98 16 3 C16.66 3 17.32 3 18 3 C18 3.66 18 4.32 18 5 C11.07 5 4.14 5 -3 5 C-3 4.34 -3 3.68 -3 3 C-2.01 3 -1.02 3 0 3 C0 2.01 0 1.02 0 0 Z " fill="#CE989F" transform="translate(362,26)"/>
<path d="M0 0 C2.31 0 4.62 0 7 0 C7 0.99 7 1.98 7 3 C7.66 3 8.32 3 9 3 C10.53266582 6.06533164 10.10276471 9.26754272 10.0625 12.625 C10.05798828 13.33140625 10.05347656 14.0378125 10.04882812 14.765625 C10.03703875 16.51045275 10.01910324 18.255237 10 20 C9.01 20.33 8.02 20.66 7 21 C7 21.99 7 22.98 7 24 C5.35 24 3.7 24 2 24 C2 23.01 2 22.02 2 21 C3.65 20.67 5.3 20.34 7 20 C7 19.34 7 18.68 7 18 C7.66 18 8.32 18 9 18 C9 14.37 9 10.74 9 7 C8.34 7 7.68 7 7 7 C7 6.34 7 5.68 7 5 C6.01 5 5.02 5 4 5 C4 4.34 4 3.68 4 3 C2.68 3 1.36 3 0 3 C0 2.01 0 1.02 0 0 Z " fill="#DEC5CD" transform="translate(229,32)"/>
<path d="M0 0 C2.64 0 5.28 0 8 0 C8 9.57 8 19.14 8 29 C7.34 29 6.68 29 6 29 C6 20.09 6 11.18 6 2 C4.02 2 2.04 2 0 2 C0 1.34 0 0.68 0 0 Z " fill="#B7585E" transform="translate(385,16)"/>
<path d="M0 0 C1.32 0 2.64 0 4 0 C4 3.3 4 6.6 4 10 C3.01 10 2.02 10 1 10 C1 11.65 1 13.3 1 15 C0.01 15.33 -0.98 15.66 -2 16 C-2 16.99 -2 17.98 -2 19 C-3.65 19 -5.3 19 -7 19 C-7 18.01 -7 17.02 -7 16 C-5.35 15.67 -3.7 15.34 -2 15 C-2 14.34 -2 13.68 -2 13 C-1.34 13 -0.68 13 0 13 C0 8.71 0 4.42 0 0 Z " fill="#E0C9D2" transform="translate(280,37)"/>
<path d="M0 0 C0.66 0 1.32 0 2 0 C2 7.26 2 14.52 2 22 C3.98 22 5.96 22 8 22 C8 22.99 8 23.98 8 25 C5.36 25 2.72 25 0 25 C0 16.75 0 8.5 0 0 Z " fill="#B34B50" transform="translate(341,31)"/>
<path d="M0 0 C1.32 0 2.64 0 4 0 C4 0.99 4 1.98 4 3 C3.34 3 2.68 3 2 3 C2 7.95 2 12.9 2 18 C2.66 18 3.32 18 4 18 C4 18.66 4 19.32 4 20 C4.99 20.33 5.98 20.66 7 21 C4.69 20.67 2.38 20.34 0 20 C-1.69423409 13.64662215 -1.69423409 6.35337785 0 0 Z " fill="#D4AAB1" transform="translate(313,32)"/>
<path d="M0 0 C2.64 0 5.28 0 8 0 C8 2.64 8 5.28 8 8 C5.36 8 2.72 8 0 8 C0 5.36 0 2.72 0 0 Z " fill="#B04448" transform="translate(341,16)"/>
<path d="M0 0 C0.99 0 1.98 0 3 0 C3 1.65 3 3.3 3 5 C2.01 5 1.02 5 0 5 C0 10.28 0 15.56 0 21 C0.99 21 1.98 21 3 21 C3 21.66 3 22.32 3 23 C3.66 23 4.32 23 5 23 C5 24.65 5 26.3 5 28 C4.34 28 3.68 28 3 28 C3 27.34 3 26.68 3 26 C2.01 26 1.02 26 0 26 C-0.96958001 23.09125996 -1.12880274 21.21010209 -1.1328125 18.18359375 C-1.13410156 17.25482422 -1.13539063 16.32605469 -1.13671875 15.36914062 C-1.13091797 13.91797852 -1.13091797 13.91797852 -1.125 12.4375 C-1.12886719 11.46619141 -1.13273438 10.49488281 -1.13671875 9.49414062 C-1.13542969 8.56666016 -1.13414062 7.63917969 -1.1328125 6.68359375 C-1.13168457 5.83337646 -1.13055664 4.98315918 -1.12939453 4.10717773 C-1 2 -1 2 0 0 Z " fill="#CD969C" transform="translate(176,24)"/>
<path d="M0 0 C3.3 0 6.6 0 10 0 C10 0.99 10 1.98 10 3 C10.99 3 11.98 3 13 3 C13 3.66 13 4.32 13 5 C11.02 5 9.04 5 7 5 C7 4.34 7 3.68 7 3 C5.68 3 4.36 3 3 3 C3 3.66 3 4.32 3 5 C1.02 5 -0.96 5 -3 5 C-3 4.34 -3 3.68 -3 3 C-2.01 3 -1.02 3 0 3 C0 2.01 0 1.02 0 0 Z " fill="#DEC6CE" transform="translate(323,26)"/>
<path d="M0 0 C0 0.99 0 1.98 0 3 C-0.99 3 -1.98 3 -3 3 C-3 4.65 -3 6.3 -3 8 C-1.02 8 0.96 8 3 8 C3 8.66 3 9.32 3 10 C3.66 10.33 4.32 10.66 5 11 C4.34 11 3.68 11 3 11 C3 11.99 3 12.98 3 14 C2.34 14 1.68 14 1 14 C1 12.68 1 11.36 1 10 C-0.98 10 -2.96 10 -5 10 C-5 7.03 -5 4.06 -5 1 C-3 0 -3 0 0 0 Z " fill="#E8D0CE" transform="translate(144,42)"/>
<path d="M0 0 C1.98 0 3.96 0 6 0 C6 0.99 6 1.98 6 3 C5.01 3.495 5.01 3.495 4 4 C4 4.66 4 5.32 4 6 C4.66 6 5.32 6 6 6 C6 6.66 6 7.32 6 8 C4.35 8 2.7 8 1 8 C1 7.34 1 6.68 1 6 C-0.98 6 -2.96 6 -5 6 C-5 5.34 -5 4.68 -5 4 C-3.35 3.67 -1.7 3.34 0 3 C0 2.01 0 1.02 0 0 Z " fill="#C57E84" transform="translate(259,39)"/>
<path d="M0 0 C3.63 0 7.26 0 11 0 C11 1.65 11 3.3 11 5 C8.36 5 5.72 5 3 5 C3 4.34 3 3.68 3 3 C2.01 3 1.02 3 0 3 C0 2.01 0 1.02 0 0 Z " fill="#CD969D" transform="translate(225,26)"/>
<path d="M0 0 C0.99 0 1.98 0 3 0 C3 4.95 3 9.9 3 15 C2.01 15 1.02 15 0 15 C0 10.05 0 5.1 0 0 Z " fill="#C17379" transform="translate(254,22)"/>
<path d="M0 0 C2.31 0 4.62 0 7 0 C8.36952673 2.73905345 8.12621361 4.97087332 8 8 C7.67 8.66 7.34 9.32 7 10 C4.69 10 2.38 10 0 10 C0 9.34 0 8.68 0 8 C1.65 8 3.3 8 5 8 C5 6.02 5 4.04 5 2 C3.35 2 1.7 2 0 2 C0 1.34 0 0.68 0 0 Z " fill="#CF9BA2" transform="translate(294,37)"/>
<path d="M0 0 C3.96 0 7.92 0 12 0 C12 0.99 12 1.98 12 3 C10.68 3 9.36 3 8 3 C8 3.66 8 4.32 8 5 C7.34 5 6.68 5 6 5 C6 4.34 6 3.68 6 3 C4.02 3 2.04 3 0 3 C0 2.01 0 1.02 0 0 Z " fill="#BD676D" transform="translate(385,53)"/>
<path d="M0 0 C0.99 0 1.98 0 3 0 C3 1.32 3 2.64 3 4 C3.66 4 4.32 4 5 4 C5 4.99 5 5.98 5 7 C4.34 7 3.68 7 3 7 C3 7.66 3 8.32 3 9 C2.01 9 1.02 9 0 9 C0 8.34 0 7.68 0 7 C-0.66 7 -1.32 7 -2 7 C-2 6.01 -2 5.02 -2 4 C-1.34 4 -0.68 4 0 4 C0 2.68 0 1.36 0 0 Z " fill="#E8D5D6" transform="translate(149,43)"/>
<path d="M0 0 C1.3271261 3.9813783 1.06915913 7.85045227 1 12 C-0.32 11.67 -1.64 11.34 -3 11 C-3 7.7 -3 4.4 -3 1 C-2.01 0.67 -1.02 0.34 0 0 Z " fill="#BE6C73" transform="translate(186,31)"/>
<path d="M0 0 C0.66 0 1.32 0 2 0 C2 0.66 2 1.32 2 2 C3.65 2 5.3 2 7 2 C7 1.34 7 0.68 7 0 C7.99 0 8.98 0 10 0 C9.67 1.65 9.34 3.3 9 5 C6.03 5 3.06 5 0 5 C0 3.35 0 1.7 0 0 Z " fill="#EED5CC" transform="translate(145,58)"/>
<path d="M0 0 C0.33 0 0.66 0 1 0 C1.125 6.75 1.125 6.75 0 9 C-3.3 9 -6.6 9 -10 9 C-10 8.34 -10 7.68 -10 7 C-7.69 7 -5.38 7 -3 7 C-3 6.01 -3 5.02 -3 4 C-2.01 4 -1.02 4 0 4 C0 2.68 0 1.36 0 0 Z " fill="#D4A8AF" transform="translate(207,22)"/>
<path d="M0 0 C3.96 0 7.92 0 12 0 C12 0.99 12 1.98 12 3 C8.04 3 4.08 3 0 3 C0 2.01 0 1.02 0 0 Z " fill="#BB6268" transform="translate(259,18)"/>
<path d="M0 0 C1.98 0 3.96 0 6 0 C6 2.64 6 5.28 6 8 C4.68 8 3.36 8 2 8 C2.33 6.35 2.66 4.7 3 3 C2.01 3 1.02 3 0 3 C0 2.01 0 1.02 0 0 Z " fill="#AD3C41" transform="translate(194,39)"/>
<path d="M0 0 C1.65 0 3.3 0 5 0 C5 2.31 5 4.62 5 7 C3.35 7 1.7 7 0 7 C0 4.69 0 2.38 0 0 Z " fill="#D19FA6" transform="translate(189,35)"/>
<path d="M0 0 C2.31 0 4.62 0 7 0 C7 0.99 7 1.98 7 3 C7.66 3 8.32 3 9 3 C9 4.32 9 5.64 9 7 C8.34 7 7.68 7 7 7 C7 6.34 7 5.68 7 5 C6.01 5 5.02 5 4 5 C4 4.34 4 3.68 4 3 C2.68 3 1.36 3 0 3 C0 2.01 0 1.02 0 0 Z " fill="#D8B3BB" transform="translate(229,32)"/>
<path d="M0 0 C3.63 0 7.26 0 11 0 C11 0.99 11 1.98 11 3 C7.37 3 3.74 3 0 3 C0 2.01 0 1.02 0 0 Z " fill="#C37A80" transform="translate(357,53)"/>
<path d="M0 0 C1.65 0 3.3 0 5 0 C5 0.66 5 1.32 5 2 C4.01 2 3.02 2 2 2 C2 3.65 2 5.3 2 7 C2.99 7 3.98 7 5 7 C5 7.99 5 8.98 5 10 C3.35 9.67 1.7 9.34 0 9 C0 6.03 0 3.06 0 0 Z " fill="#D1A0A7" transform="translate(210,43)"/>
<path d="M0 0 C3.3 0 6.6 0 10 0 C10 0.99 10 1.98 10 3 C6.7 3.33 3.4 3.66 0 4 C0 2.68 0 1.36 0 0 Z " fill="#C68288" transform="translate(215,18)"/>
<path d="M0 0 C2.31 0 4.62 0 7 0 C7 0.99 7 1.98 7 3 C7.66 3 8.32 3 9 3 C9 3.66 9 4.32 9 5 C7.35 5 5.7 5 4 5 C4 4.34 4 3.68 4 3 C2.68 3 1.36 3 0 3 C0 2.01 0 1.02 0 0 Z " fill="#D8B4BB" transform="translate(271,32)"/>
<path d="M0 0 C0.33 0 0.66 0 1 0 C0.67 4.95 0.34 9.9 0 15 C-0.66 15 -1.32 15 -2 15 C-2 10.71 -2 6.42 -2 2 C-1.34 2 -0.68 2 0 2 C0 1.34 0 0.68 0 0 Z " fill="#D9B4BB" transform="translate(154,24)"/>
<path d="M0 0 C3.3 0 6.6 0 10 0 C10 0.99 10 1.98 10 3 C6.7 3 3.4 3 0 3 C0 2.01 0 1.02 0 0 Z " fill="#E9E3EB" transform="translate(292,26)"/>
<path d="M0 0 C2.31 0 4.62 0 7 0 C7 1.98 7 3.96 7 6 C6.34 6 5.68 6 5 6 C5 5.34 5 4.68 5 4 C3.35 3.67 1.7 3.34 0 3 C0 2.01 0 1.02 0 0 Z " fill="#EFBCA0" transform="translate(147,18)"/>
<path d="M0 0 C0.66 0 1.32 0 2 0 C2 1.32 2 2.64 2 4 C1.34 4 0.68 4 0 4 C0 4.99 0 5.98 0 7 C-1.65 7.33 -3.3 7.66 -5 8 C-5 6.68 -5 5.36 -5 4 C-4.01 4 -3.02 4 -2 4 C-2 3.34 -2 2.68 -2 2 C-1.34 2 -0.68 2 0 2 C0 1.34 0 0.68 0 0 Z " fill="#D5AAB2" transform="translate(97,14)"/>
<path d="M0 0 C1.32 0 2.64 0 4 0 C4 0.99 4 1.98 4 3 C4.66 3.33 5.32 3.66 6 4 C4.02 4 2.04 4 0 4 C0 5.32 0 6.64 0 8 C-0.66 8 -1.32 8 -2 8 C-2 6.35 -2 4.7 -2 3 C-1.34 3 -0.68 3 0 3 C0 2.01 0 1.02 0 0 Z " fill="#DABAC1" transform="translate(141,18)"/>
<path d="M0 0 C0.99 0 1.98 0 3 0 C3 1.98 3 3.96 3 6 C3.66 6 4.32 6 5 6 C5 6.66 5 7.32 5 8 C3.35 8 1.7 8 0 8 C0 5.36 0 2.72 0 0 Z " fill="#E6DBE3" transform="translate(338,18)"/>
<path d="M0 0 C0.99 0 1.98 0 3 0 C3.33 1.32 3.66 2.64 4 4 C4.66 4 5.32 4 6 4 C6 5.65 6 7.3 6 9 C5.34 9 4.68 9 4 9 C3.67 7.35 3.34 5.7 3 4 C2.01 4 1.02 4 0 4 C0 2.68 0 1.36 0 0 Z " fill="#D19FA6" transform="translate(99,43)"/>
<path d="M0 0 C1.32 0.33 2.64 0.66 4 1 C3.67 3.31 3.34 5.62 3 8 C2.01 8 1.02 8 0 8 C0 5.36 0 2.72 0 0 Z " fill="#F2C8C4" transform="translate(141,31)"/>
<path d="M0 0 C1.32 0 2.64 0 4 0 C4 0.99 4 1.98 4 3 C4.66 3 5.32 3 6 3 C6 4.32 6 5.64 6 7 C5.34 7 4.68 7 4 7 C4 6.34 4 5.68 4 5 C3.01 5 2.02 5 1 5 C0.67 3.35 0.34 1.7 0 0 Z " fill="#EDD6CE" transform="translate(154,11)"/>
<path d="M0 0 C0.66 0 1.32 0 2 0 C2 3.63 2 7.26 2 11 C1.01 11 0.02 11 -1 11 C-0.67 7.37 -0.34 3.74 0 0 Z " fill="#C57F85" transform="translate(145,31)"/>
<path d="M0 0 C0.99 0 1.98 0 3 0 C3 2.64 3 5.28 3 8 C2.01 8 1.02 8 0 8 C0 5.36 0 2.72 0 0 Z " fill="#D5ABB2" transform="translate(92,60)"/>
<path d="M0 0 C0.66 0 1.32 0 2 0 C2 0.99 2 1.98 2 3 C1.34 3 0.68 3 0 3 C0 3.99 0 4.98 0 6 C-1.65 6 -3.3 6 -5 6 C-5 5.01 -5 4.02 -5 3 C-3.35 2.67 -1.7 2.34 0 2 C0 1.34 0 0.68 0 0 Z " fill="#D4A9B0" transform="translate(278,50)"/>
<path d="M0 0 C1.32 0 2.64 0 4 0 C4 1.98 4 3.96 4 6 C2.68 6 1.36 6 0 6 C0 4.02 0 2.04 0 0 Z " fill="#C8858C" transform="translate(368,39)"/>
<path d="M0 0 C0.99 0 1.98 0 3 0 C3 2.64 3 5.28 3 8 C2.01 8 1.02 8 0 8 C0 5.36 0 2.72 0 0 Z " fill="#E5D9E1" transform="translate(351,39)"/>
<path d="M0 0 C2.64 0 5.28 0 8 0 C8 0.99 8 1.98 8 3 C5.36 3 2.72 3 0 3 C0 2.01 0 1.02 0 0 Z " fill="#E1CDD6" transform="translate(328,39)"/>
<path d="M0 0 C2.64 0 5.28 0 8 0 C8 0.99 8 1.98 8 3 C5.36 3 2.72 3 0 3 C0 2.01 0 1.02 0 0 Z " fill="#BE6C72" transform="translate(186,18)"/>
<path d="M0 0 C2.64 0.33 5.28 0.66 8 1 C8 1.99 8 2.98 8 4 C6.02 4 4.04 4 2 4 C2 3.01 2 2.02 2 1 C1.34 0.67 0.68 0.34 0 0 Z " fill="#CC9299" transform="translate(105,52)"/>
<path d="M0 0 C0.66 0 1.32 0 2 0 C2 1.65 2 3.3 2 5 C2.99 5 3.98 5 5 5 C5 5.99 5 6.98 5 8 C3.35 7.67 1.7 7.34 0 7 C0 4.69 0 2.38 0 0 Z " fill="#DAB9C0" transform="translate(252,45)"/>
<path d="M0 0 C0 0.99 0 1.98 0 3 C-0.99 3 -1.98 3 -3 3 C-3 4.65 -3 6.3 -3 8 C-3.66 8 -4.32 8 -5 8 C-5 5.69 -5 3.38 -5 1 C-3 0 -3 0 0 0 Z " fill="#D4A7AE" transform="translate(144,42)"/>
<path d="M0 0 C1.98 0 3.96 0 6 0 C6 1.32 6 2.64 6 4 C5.01 4 4.02 4 3 4 C2.67 4.66 2.34 5.32 2 6 C2 5.34 2 4.68 2 4 C1.34 4 0.68 4 0 4 C0 2.68 0 1.36 0 0 Z " fill="#E8BFB3" transform="translate(152,39)"/>
<path d="M0 0 C2.475 0.495 2.475 0.495 5 1 C5 2.65 5 4.3 5 6 C4.01 6 3.02 6 2 6 C2 5.34 2 4.68 2 4 C1.34 4 0.68 4 0 4 C0 2.68 0 1.36 0 0 Z " fill="#DDC1C9" transform="translate(307,31)"/>
<path d="M0 0 C1.32 0 2.64 0 4 0 C4 1.32 4 2.64 4 4 C3.01 4 2.02 4 1 4 C1 6.31 1 8.62 1 11 C0.67 11 0.34 11 0 11 C0 7.37 0 3.74 0 0 Z " fill="#B8595E" transform="translate(91,22)"/>
<path d="M0 0 C0.33 1.32 0.66 2.64 1 4 C1.99 4 2.98 4 4 4 C4 5.65 4 7.3 4 9 C3.01 9 2.02 9 1 9 C-0.4783226 6.04335481 -0.06032783 3.25770263 0 0 Z " fill="#D1A0A8" transform="translate(91,43)"/>
<path d="M0 0 C2.64 0 5.28 0 8 0 C8 1.65 8 3.3 8 5 C7.34 5 6.68 5 6 5 C6 4.01 6 3.02 6 2 C4.02 2 2.04 2 0 2 C0 1.34 0 0.68 0 0 Z " fill="#C47B81" transform="translate(385,16)"/>
<path d="M0 0 C1.65 0 3.3 0 5 0 C5 0.99 5 1.98 5 3 C4.34 3 3.68 3 3 3 C3 3.66 3 4.32 3 5 C2.01 5 1.02 5 0 5 C0 3.35 0 1.7 0 0 Z " fill="#EFC4AE" transform="translate(155,53)"/>
<path d="M0 0 C0.99 0 1.98 0 3 0 C3 1.65 3 3.3 3 5 C1.35 5.33 -0.3 5.66 -2 6 C-2 5.01 -2 4.02 -2 3 C-1.34 3 -0.68 3 0 3 C0 2.01 0 1.02 0 0 Z " fill="#D7B1B9" transform="translate(309,47)"/>
<path d="M0 0 C1.98 0 3.96 0 6 0 C6 0.99 6 1.98 6 3 C3.36 3.33 0.72 3.66 -2 4 C-1.34 3.67 -0.68 3.34 0 3 C0 2.01 0 1.02 0 0 Z " fill="#D7B3BB" transform="translate(259,39)"/>
<path d="M0 0 C2.31 0 4.62 0 7 0 C7 0.99 7 1.98 7 3 C4.69 3 2.38 3 0 3 C0 2.01 0 1.02 0 0 Z " fill="#F0D4D5" transform="translate(134,39)"/>
<path d="M0 0 C0.99 0 1.98 0 3 0 C3 1.65 3 3.3 3 5 C2.01 5 1.02 5 0 5 C-0.33 5.99 -0.66 6.98 -1 8 C-1.125 2.25 -1.125 2.25 0 0 Z " fill="#D6AFB7" transform="translate(176,24)"/>
<path d="M0 0 C0.66 0 1.32 0 2 0 C2 0.99 2 1.98 2 3 C2.99 3 3.98 3 5 3 C5 3.99 5 4.98 5 6 C3.35 6 1.7 6 0 6 C0 4.02 0 2.04 0 0 Z " fill="#EFC4AF" transform="translate(160,18)"/>
<path d="M0 0 C2.31 0 4.62 0 7 0 C7 0.99 7 1.98 7 3 C4.69 3 2.38 3 0 3 C0 2.01 0 1.02 0 0 Z " fill="#D09CA3" transform="translate(197,18)"/>
<path d="M0 0 C0.99 0 1.98 0 3 0 C3 0.66 3 1.32 3 2 C4.32 2 5.64 2 7 2 C7 2.66 7 3.32 7 4 C4.69 4 2.38 4 0 4 C0 2.68 0 1.36 0 0 Z " fill="#D5ABB2" transform="translate(323,43)"/>
<path d="M0 0 C0.66 0 1.32 0 2 0 C2 0.99 2 1.98 2 3 C2.66 3 3.32 3 4 3 C4 3.66 4 4.32 4 5 C4.99 5.33 5.98 5.66 7 6 C4.69 5.67 2.38 5.34 0 5 C0 3.35 0 1.7 0 0 Z " fill="#D9B8C0" transform="translate(313,47)"/>
<path d="M0 0 C0.93423645 3.01031744 1.04449911 3.86650268 0 7 C-0.99 7 -1.98 7 -3 7 C-3 5.35 -3 3.7 -3 2 C-2.01 2 -1.02 2 0 2 C0 1.34 0 0.68 0 0 Z " fill="#DBBCC3" transform="translate(102,22)"/>
<path d="M0 0 C0.99 0 1.98 0 3 0 C3 1.98 3 3.96 3 6 C2.01 6 1.02 6 0 6 C0 4.02 0 2.04 0 0 Z " fill="#DEC3CC" transform="translate(141,58)"/>
<path d="M0 0 C1.98 0 3.96 0 6 0 C6 0.99 6 1.98 6 3 C4.02 3 2.04 3 0 3 C0 2.01 0 1.02 0 0 Z " fill="#BE6B71" transform="translate(320,53)"/>
<path d="M0 0 C1.98 0 3.96 0 6 0 C6 0.99 6 1.98 6 3 C4.02 3 2.04 3 0 3 C0 2.01 0 1.02 0 0 Z " fill="#CE989F" transform="translate(288,53)"/>
<path d="M0 0 C1.98 0 3.96 0 6 0 C6 0.99 6 1.98 6 3 C4.02 3 2.04 3 0 3 C0 2.01 0 1.02 0 0 Z " fill="#CB8E95" transform="translate(257,53)"/>
<path d="M0 0 C1.98 0 3.96 0 6 0 C6 0.99 6 1.98 6 3 C4.02 3 2.04 3 0 3 C0 2.01 0 1.02 0 0 Z " fill="#C7848A" transform="translate(215,53)"/>
<path d="M0 0 C1.98 0 3.96 0 6 0 C6 0.99 6 1.98 6 3 C4.02 3 2.04 3 0 3 C0 2.01 0 1.02 0 0 Z " fill="#D3A6AE" transform="translate(183,53)"/>
<path d="M0 0 C1.98 0 3.96 0 6 0 C6 0.99 6 1.98 6 3 C4.02 3 2.04 3 0 3 C0 2.01 0 1.02 0 0 Z " fill="#B04549" transform="translate(141,47)"/>
<path d="M0 0 C0.66 0 1.32 0 2 0 C2 1.32 2 2.64 2 4 C-0.31 4 -2.62 4 -5 4 C-5 3.34 -5 2.68 -5 2 C-3.35 2 -1.7 2 0 2 C0 1.34 0 0.68 0 0 Z " fill="#E1CED7" transform="translate(299,43)"/>
<path d="M0 0 C0.66 0 1.32 0 2 0 C2 0.66 2 1.32 2 2 C3.65 2 5.3 2 7 2 C7 2.66 7 3.32 7 4 C4.69 4 2.38 4 0 4 C0 2.68 0 1.36 0 0 Z " fill="#D09CA3" transform="translate(187,43)"/>
<path d="M0 0 C1.65 0 3.3 0 5 0 C5 1.32 5 2.64 5 4 C3.35 3.67 1.7 3.34 0 3 C0 2.01 0 1.02 0 0 Z " fill="#B55156" transform="translate(265,39)"/>
<path d="M0 0 C1.98 0 3.96 0 6 0 C6 0.99 6 1.98 6 3 C4.02 3 2.04 3 0 3 C0 2.01 0 1.02 0 0 Z " fill="#EBEAF3" transform="translate(372,26)"/>
<path d="M0 0 C1.98 0 3.96 0 6 0 C6 0.99 6 1.98 6 3 C4.02 3 2.04 3 0 3 C0 2.01 0 1.02 0 0 Z " fill="#ECEBF3" transform="translate(362,26)"/>
<path d="M0 0 C0.99 0 1.98 0 3 0 C3 1.98 3 3.96 3 6 C2.01 6 1.02 6 0 6 C0 4.02 0 2.04 0 0 Z " fill="#A72A2F" transform="translate(212,26)"/>
<path d="M0 0 C1.98 0 3.96 0 6 0 C6 0.99 6 1.98 6 3 C4.02 3 2.04 3 0 3 C0 2.01 0 1.02 0 0 Z " fill="#CF9BA2" transform="translate(191,26)"/>
<path d="M0 0 C0.99 0 1.98 0 3 0 C3 1.98 3 3.96 3 6 C2.01 6 1.02 6 0 6 C0 4.02 0 2.04 0 0 Z " fill="#E4D4DD" transform="translate(141,8)"/>
<path d="M0 0 C1.98 0 3.96 0 6 0 C6 0.99 6 1.98 6 3 C4.02 3 2.04 3 0 3 C0 2.01 0 1.02 0 0 Z " fill="#D7B0B8" transform="translate(110,5)"/>
<path d="M0 0 C0.99 0 1.98 0 3 0 C3 1.65 3 3.3 3 5 C1.68 5 0.36 5 -1 5 C-0.67 3.35 -0.34 1.7 0 0 Z " fill="#CE979F" transform="translate(197,42)"/>
</svg>
